<svg width="104" height="138" viewBox="0 0 104 138" fill="none" xmlns="http://www.w3.org/2000/svg">
<path d="M9.21019 1.76474L6.1612 0.405805L0.726661 2.88933L3.72297 6.84115L1.3506 10.0354L3.60442 12.6751L0.463215 15.8537L3.47269 19.1573L1.10033 22.3516L3.35414 24.9913L0.981776 28.1856L3.99126 31.4892L1.63206 34.0352L3.85953 37.9714L1.48717 41.1656L4.50982 43.821L1.36861 46.9996L4.39127 49.655L1.25006 52.8336L4.25954 56.1372L1.10517 59.964L4.12782 62.6194L1.75545 65.8136L4.00927 68.4534L1.6369 71.6476L3.87755 74.9356L2.27402 78.1455L4.52783 80.7852L2.15546 83.9795L5.16494 87.283L2.02374 90.4617L5.81523 93.1327L1.12318 96.9282L4.91467 99.5992L1.77347 102.778L4.78295 106.081L1.65492 108.612L4.6644 111.915L2.29203 115.11L5.31468 117.765L2.16031 121.592L5.18296 124.247L2.04176 127.426L5.06441 130.081L2.69204 133.275L6.45718 137.243L9.58521 134.713L13.3767 137.384L18.0424 134.884L21.8339 137.555L25.7308 135.041L28.7666 137.048L33.4191 135.197L37.2238 137.22L41.1206 134.705L44.9121 137.376L48.0402 134.845L52.6136 136.884L56.5105 134.369L60.302 137.04L64.1857 135.174L68.7592 137.212L72.6561 134.697L76.4607 136.72L79.5756 134.838L84.1359 137.524L87.2639 134.994L91.8374 137.032L95.7343 134.518L98.7701 136.525L103.449 133.377L100.413 131.37L103.568 127.543L100.558 124.24L102.917 121.694L99.9078 118.39L103.049 115.212L100.808 111.924L103.154 110.026L100.158 106.074L103.286 103.544L100.29 99.5919L102.649 97.0458L100.408 93.7579L102.781 90.5636L100.527 87.9239L102.899 84.7297L99.8898 81.4261L102.249 78.88L100.021 74.9438L102.381 72.3978L100.14 69.1099L102.512 65.9156L100.259 63.2759L102.644 59.4334L100.39 56.7937L102.75 54.2476L100.522 50.3114L102.126 47.1016L99.8849 43.8136L103.026 40.635L99.2346 37.964L102.376 34.7854L100.135 31.4974L102.508 28.3032L99.4849 25.6478L102.626 22.4692L99.6166 19.1656L101.976 16.6196L99.7484 12.6834L102.108 10.1374L99.8801 6.20117L102.226 4.30338L98.4478 0.984155L95.3197 3.51455L90.7594 0.827922L86.8626 3.34269L82.2891 1.30429L79.1742 3.18646L74.6007 1.14805L71.4859 3.03022L66.9124 0.991822L63.7975 2.87399L59.224 0.835589L55.3403 2.70214L50.7668 0.663733L46.8831 2.53028L44.6161 0.538747L39.9504 3.03789L36.1458 1.01511L32.2753 2.23344L28.4574 0.85888L25.3426 2.74105L20.0002 0.687024L16.8854 2.56919L12.3119 0.530791L9.21019 1.76474Z" fill="white" stroke="white" stroke-width="0.5"/>
</svg>
